<?xml version="1.0" encoding="utf-8"?>
<!-- Generator: Adobe Illustrator 18.0.0, SVG Export Plug-In . SVG Version: 6.00 Build 0)  -->
<!DOCTYPE svg PUBLIC "-//W3C//DTD SVG 1.1//EN" "http://www.w3.org/Graphics/SVG/1.1/DTD/svg11.dtd">
<svg version="1.1" id="Ebene_1" xmlns="http://www.w3.org/2000/svg" xmlns:xlink="http://www.w3.org/1999/xlink" x="0px" y="0px"
	 viewBox="0 0 64 64" enable-background="new 0 0 64 64" xml:space="preserve">
<path id="store" fill="#010202" d="M0,26c0,3.7,2.6,6.8,6,7.7V60H2c-1.1,0-2,0.9-2,2s0.9,2,2,2h60c1.1,0,2-0.9,2-2s-0.9-2-2-2h-4
	V33.7c3.4-0.9,6-4,6-7.7v-2H0V26z M40,34c4.4,0,8-3.6,8-8c0,3.7,2.6,6.8,6,7.7V60H24V34c4.4,0,8-3.6,8-8C32,30.4,35.6,34,40,34z
	 M22,33.7V60H10V33.7c3.4-0.9,6-4,6-7.7C16,29.7,18.6,32.8,22,33.7z M56,6H8L0,22h64L56,6z M16.9,10.4l-4,8C12.7,18.8,12.4,19,12,19
	c-0.1,0-0.3,0-0.4-0.1c-0.5-0.2-0.7-0.8-0.4-1.3l4-8c0.3-0.5,0.8-0.7,1.3-0.4C16.9,9.4,17.1,10,16.9,10.4z M24.9,10.4l-4,8
	C20.7,18.8,20.4,19,20,19c-0.1,0-0.3,0-0.4-0.1c-0.5-0.2-0.7-0.8-0.4-1.3l4-8c0.3-0.5,0.9-0.7,1.3-0.4C24.9,9.4,25.1,10,24.9,10.4z
	 M33,18c0,0.6-0.4,1-1,1c-0.6,0-1-0.4-1-1v-8c0-0.6,0.4-1,1-1c0.6,0,1,0.4,1,1V18z M44.5,18.9C44.3,19,44.2,19,44,19
	c-0.4,0-0.7-0.2-0.9-0.5l-4.4-8c-0.3-0.5-0.1-1.1,0.4-1.4c0.5-0.3,1.1-0.1,1.4,0.4l4.4,8C45.1,18,45,18.6,44.5,18.9z M52.4,18.9
	C52.3,19,52.2,19,52,19c-0.4,0-0.7-0.2-0.9-0.6l-4-8c-0.3-0.5,0-1.1,0.4-1.3c0.5-0.2,1.1,0,1.3,0.4l4,8C53.1,18,52.9,18.6,52.4,18.9
	z M17,48.3v-4.6c-0.6-0.4-1-1-1-1.7c0-1.1,0.9-2,2-2c1.1,0,2,0.9,2,2c0,0.7-0.4,1.3-1,1.7v4.6c0.6,0.4,1,1,1,1.7c0,1.1-0.9,2-2,2
	c-1.1,0-2-0.9-2-2C16,49.3,16.4,48.7,17,48.3z M8,2c0-1.1,0.9-2,2-2h44c1.1,0,2,0.9,2,2s-0.9,2-2,2H10C8.9,4,8,3.1,8,2z M35.1,44.7
	l-1.4-1.4l5.7-5.7l1.4,1.4L35.1,44.7z M35.1,50.4l-1.4-1.4L45,37.6l1.4,1.4L35.1,50.4z M45,43.3l1.4,1.4l-5.7,5.7l-1.4-1.4L45,43.3z
	"/>
</svg>
