<?xml version="1.0" encoding="utf-8"?>
<!DOCTYPE svg PUBLIC "-//W3C//DTD SVG 1.1 Tiny//EN"
	"http://www.w3.org/Graphics/SVG/1.1/DTD/svg11-tiny.dtd">
        
<svg width="100%" height="100%" xmlns="http://www.w3.org/2000/svg" viewBox="0 0 1590 80">
	
	<polygon class="back left shadow" points="265,25 525,25 520,7 525,75 265,75 290,50" fill="#000000" fill-opacity="0.1" stroke="black" stroke-width="0" transform="translate(0,5)"/>
	<polygon class="back right shadow" points="1065,25 1325,25 1290,50 1325,75 1065,75" fill="#000000" fill-opacity="0.1" stroke="black" stroke-width="0" transform="translate(0,5)"/>
	
	<polygon class="back left" points="265,25 530,25 530,75 265,75 290,50" fill="#6dc5f2" stroke="black" stroke-width="0"/>
	<polygon class="back right" points="1060,25 1325,25 1290,50 1325,75 1060,75" fill="#6dc5f2" stroke="black" stroke-width="0"/>
	

	<rect x="495" y="0" height="50" width="600" fill="#559bc0"></rect>
	<polygon class="left" points="495,50 530,50 530,75" fill="#33627a" stroke="black" stroke-width="0"/>
	<polygon class="right" points="1095,50 1060,50 1060,75" fill="#33627a" stroke="black" stroke-width="0"/>
	
</svg>
