<?xml version="1.0" encoding="utf-8"?>
<!-- Generator: Adobe Illustrator 18.0.0, SVG Export Plug-In . SVG Version: 6.00 Build 0)  -->
<!DOCTYPE svg PUBLIC "-//W3C//DTD SVG 1.1//EN" "http://www.w3.org/Graphics/SVG/1.1/DTD/svg11.dtd">
<svg version="1.1" id="Ebene_1" xmlns="http://www.w3.org/2000/svg" xmlns:xlink="http://www.w3.org/1999/xlink" x="0px" y="0px"
	 viewBox="0 0 64 64" enable-background="new 0 0 64 64" xml:space="preserve">
<path id="drawing" fill="#010202" d="M55.4,7H41.5l-1.1-5.7c-0.2-0.8-1-1.4-1.9-1.2l-3.2,0.6c-0.4,0.1-0.8,0.3-1,0.7
	C34,1.7,33.9,2.1,34,2.5L34.9,7h-4.2l1-4.5c0.1-0.4,0-0.8-0.2-1.2c-0.2-0.3-0.6-0.6-1-0.7L27.3,0c-0.4-0.1-0.9,0-1.2,0.2
	c-0.4,0.2-0.6,0.6-0.7,1L24.1,7H8.6C7.7,7,7,7.7,7,8.6v34.9C7,44.3,7.7,45,8.6,45h6.8l-3.9,17.1c-0.1,0.5,0,0.9,0.3,1.3
	c0.3,0.4,0.8,0.6,1.3,0.6h3.3c0.8,0,1.4-0.5,1.6-1.2l1.4-6.2h25.4l1.2,6.2c0.1,0.7,0.8,1.3,1.6,1.3h3.3c0,0,0,0,0,0
	c0.9,0,1.6-0.7,1.6-1.6c0-0.1,0-0.3-0.1-0.4l-3.4-17h6.3c0.9,0,1.6-0.7,1.6-1.6V8.6C57,7.7,56.3,7,55.4,7z M43.6,50.3H20.8L22,45
	h20.5L43.6,50.3z M11.8,40.4V11.7h40.3v28.7H11.8z M43.3,24.1c-0.1-0.3-0.2-0.5-0.5-0.7c-0.3-0.2-0.6-0.2-0.9-0.2
	c-0.7,0.1-1.7,0.4-2.9,0.7l-0.5-1.4c1-0.3,2-0.5,2.9-0.6c0.6-0.1,1-0.6,1-1.2l-0.1-1.4c0-0.3-0.2-0.6-0.4-0.8
	c-0.2-0.2-0.5-0.3-0.8-0.2c-1.7,0.2-3.4,0.6-5.1,1.2l-0.6-1.4c-0.1-0.3-0.3-0.5-0.6-0.6c-0.3-0.1-0.6-0.1-0.9,0
	c-0.4,0.2-0.8,0.3-1.3,0.5l-0.1-0.4c-0.1-0.3-0.2-0.5-0.5-0.7c-0.3-0.2-0.6-0.2-0.9-0.1c-2.3,0.5-5.5,1.4-9.6,3.2
	c-0.3,0.1-0.5,0.4-0.6,0.6c-0.1,0.3-0.1,0.6,0.1,0.8l0.7,1.3c0.2,0.4,0.6,0.6,1,0.6c0.2,0,0.3,0,0.5-0.1c0.2-0.1,0.4-0.2,0.7-0.3
	c-1,0.8-1.9,1.5-2.7,2.4c-0.1,0.1-0.2,0.2-0.3,0.3c-0.4,0.4-0.4,1.1,0,1.5l1.1,1c0.2,0.2,0.5,0.3,0.8,0.3c0.3,0,0.6-0.1,0.8-0.3
	c0.1-0.1,0.2-0.2,0.3-0.3c0.4-0.4,0.7-0.7,1.1-1c0,0,0,0,0,0.1c0,0.3,0.1,0.6,0.4,0.8l0.6,0.6c-1.5,1.2-2.8,2.5-4,3.8
	c-0.2,0.2-0.3,0.5-0.3,0.8c0,0.3,0.2,0.6,0.4,0.7l1.2,0.9c0.2,0.2,0.5,0.2,0.7,0.2c0.3,0,0.6-0.1,0.9-0.4c1-1.1,2.1-2.2,3.3-3.2
	l0.5,0.5c0.4,0.4,1.1,0.5,1.5,0.1c0.1-0.1,0.2-0.1,0.2-0.2c-0.1,0.2-0.1,0.4-0.1,0.6c0.1,0.3,0.2,0.6,0.5,0.7l1.2,0.8
	c0.5,0.3,1.2,0.2,1.5-0.3c2-2.6,5.1-4,6.3-4.4c0.5-0.2,0.8-0.8,0.7-1.3l-0.1-0.3c0.9-0.2,1.7-0.4,2.2-0.5c0.6-0.1,1-0.7,0.9-1.3
	L43.3,24.1z"/>
</svg>
