<?xml version="1.0" encoding="utf-8"?>
<!-- Generator: Adobe Illustrator 18.0.0, SVG Export Plug-In . SVG Version: 6.00 Build 0)  -->
<!DOCTYPE svg PUBLIC "-//W3C//DTD SVG 1.1//EN" "http://www.w3.org/Graphics/SVG/1.1/DTD/svg11.dtd">
<svg version="1.1" id="Ebene_1" xmlns="http://www.w3.org/2000/svg" xmlns:xlink="http://www.w3.org/1999/xlink" x="0px" y="0px"
	 viewBox="0 0 64 64" enable-background="new 0 0 64 64" xml:space="preserve">
<path id="exhibition" fill="#010202" d="M21.1,10.7h21.7v11.9H21.1V10.7z M16.9,27.8h30.3c0.7,0,1.2-0.5,1.2-1.2V6.6
	c0-0.7-0.5-1.2-1.2-1.2H35.7l-2.6-4.8C32.9,0.3,32.5,0,32,0c-0.4,0-0.8,0.2-1.1,0.5l-3.2,4.9H16.9c-0.7,0-1.2,0.5-1.2,1.2v19.9
	C15.6,27.2,16.2,27.8,16.9,27.8z M31.9,3.6l1,1.9h-2.2L31.9,3.6z M18.7,9.5c0-0.7,0.5-1.2,1.2-1.2h24.2c0.7,0,1.2,0.5,1.2,1.2v14.3
	c0,0.7-0.5,1.2-1.2,1.2H19.9c-0.7,0-1.2-0.5-1.2-1.2L18.7,9.5L18.7,9.5z M44.3,38.6c-0.7,0-1.2,0.5-1.2,1.2
	c0,6.2-5.1,11.3-11.4,11.3c-6.3,0-11.4-5.1-11.4-11.3c0-0.7-0.5-1.2-1.2-1.2c-0.4,0-0.8,0.2-1,0.6v-1.5c1-0.5,1.6-1.4,1.6-2.5
	c0-1.6-1.3-2.8-2.8-2.8c-1.6,0-2.8,1.3-2.8,2.8c0,1.1,0.7,2.1,1.6,2.5v25c0,0.7,0.5,1.2,1.2,1.2c0.7,0,1.2-0.5,1.2-1.2V42.1
	c1.1,6.5,6.8,11.4,13.6,11.4c7.6,0,13.8-6.1,13.8-13.7C45.5,39.2,45,38.6,44.3,38.6z M13.8,38.6c-0.7,0-1.2,0.5-1.2,1.2
	c0,6.2-5.1,11.3-11.4,11.3c-0.7,0-1.2,0.5-1.2,1.2c0,0.7,0.5,1.2,1.2,1.2c7.6,0,13.8-6.1,13.8-13.7C15,39.2,14.5,38.6,13.8,38.6z
	 M50,35.2c0-1.6-1.3-2.8-2.8-2.8c-1.6,0-2.8,1.3-2.8,2.8c0,1.1,0.7,2.1,1.6,2.5v25c0,0.7,0.5,1.2,1.2,1.2c0.7,0,1.2-0.5,1.2-1.2v-25
	C49.3,37.3,50,36.3,50,35.2z M62.8,51.1c-6.3,0-11.4-5.1-11.4-11.3c0-0.7-0.5-1.2-1.2-1.2c-0.7,0-1.2,0.5-1.2,1.2
	c0,7.5,6.2,13.7,13.8,13.7c0.7,0,1.2-0.5,1.2-1.2C64,51.7,63.5,51.1,62.8,51.1z"/>
</svg>
