<?xml version="1.0" encoding="utf-8"?>
<!-- Generator: Adobe Illustrator 18.0.0, SVG Export Plug-In . SVG Version: 6.00 Build 0)  -->
<!DOCTYPE svg PUBLIC "-//W3C//DTD SVG 1.1//EN" "http://www.w3.org/Graphics/SVG/1.1/DTD/svg11.dtd">
<svg version="1.1" id="Ebene_1" xmlns="http://www.w3.org/2000/svg" xmlns:xlink="http://www.w3.org/1999/xlink" x="0px" y="0px"
	 viewBox="0 0 64 64" enable-background="new 0 0 64 64" xml:space="preserve">
<path id="arttist" fill="#010202" d="M28.5,30.9c0-1.5-1.3-2.7-2.8-2.7c-1.5,0-2.8,1.2-2.8,2.7c0,1.5,1.3,2.7,2.8,2.7
	C27.2,33.6,28.5,32.4,28.5,30.9z M24.8,31.2c0-0.8,0.6-1.4,1.4-1.4c0.8,0,1.4,0.6,1.4,1.4c0,0.8-0.6,1.4-1.4,1.4
	C25.4,32.6,24.8,32,24.8,31.2z M38.3,28.2c-1.5,0-2.8,1.2-2.8,2.7c0,1.5,1.3,2.7,2.8,2.7c1.5,0,2.8-1.2,2.8-2.7
	C41.1,29.4,39.9,28.2,38.3,28.2z M37.8,32.6c-0.8,0-1.4-0.6-1.4-1.4c0-0.8,0.6-1.4,1.4-1.4c0.8,0,1.4,0.6,1.4,1.4
	C39.2,32,38.6,32.6,37.8,32.6z M36.4,4.5c1.5-1,3.2-1.5,5-1.8c1.8-0.2,1.3-2.9-0.5-2.7c-3.2,0.4-6.1,1.7-8.2,4.1
	C19.6,3.1,8.6,7.7,8,14.3c-0.3,3.2,2.1,4.1,6.1,4.4l-0.2,2.8l-0.2,2.7c-2.2,0.9-3.5,3.2-3.5,6.2c0,1.8,0.4,3.3,1.3,4.3
	c0.9,1.1,2.1,1.7,3.7,1.8c1.6,2.7,3.9,5.1,6.5,6.9c3.2,2.2,6.7,3.3,10.2,3.3c0,0,0.1,0,0.1,0c0,0,0.1,0,0.1,0c3.5,0,7-1.1,10.2-3.3
	c2.7-1.8,5-4.2,6.5-6.9c1.5-0.1,2.8-0.7,3.7-1.8c0.9-1.1,1.3-2.5,1.3-4.3c0-3-1.3-5.3-3.5-6.2l-0.2-2.6c3.5,0.2,5.6-0.6,5.8-3.5
	C56.5,11.9,48,6.2,36.4,4.5z M51.3,30.4c0,2.4-1,3.7-2.9,3.7c0,0-0.1,0-0.2,0l-0.9-0.1L47,34.8c-2.4,4.6-8.1,9.6-14.9,9.6
	c0,0-0.1,0-0.1,0v0c0,0,0,0,0,0c0,0,0,0,0,0v0c0,0-0.1,0-0.1,0c-6.7,0-12.4-5-14.9-9.6l-0.4-0.7l-0.9,0.1c-0.1,0-0.1,0-0.2,0
	c-1.9,0-2.9-1.2-2.9-3.7c0-0.8,0.2-3.4,2.2-4.1c0.1,0.8,0.6,3.6,1.7,3.7c1.3,0.2,0.1-3.8,1.5-5c0.6,0,9.4-1.3,13.2-1.9
	c1.3-0.2,2.2-0.1,3.4,0.1c4.7,1,10.5,1.8,11.2,1.8c1.5,1.2,0.2,5.2,1.5,5c1.1-0.2,1.6-2.9,1.7-3.7C51.2,27,51.3,29.6,51.3,30.4z
	 M31.1,33.2C31,33.2,31,33.2,31.1,33.2c-2.4,0.2-2.6,1.7-2.7,2.8l0,0c0,0.1,0,0.1,0,0.2c-0.1,0.6-0.1,1.3-0.6,1.8
	c-0.2,0.2-0.7,0.4-1.1,0.4c-0.2,0-0.3,0-0.4-0.1c-0.4-0.1-0.6-0.5-0.5-0.7l0,0l0,0c0.1-0.2,0.4-0.4,0.6-0.4c0,0,0.1,0,0.1,0
	c0,0,0,0,0,0c-0.3,0-0.5,0.2-0.5,0.3c-0.1,0.2,0.1,0.5,0.4,0.5c0.1,0,0.3,0.1,0.4,0.1c0.7,0,1.1-0.5,1.1-0.9c0-0.5-0.4-0.9-1.3-0.9
	c-0.1,0-0.2,0-0.3,0c-1,0.1-1.8,0.6-1.8,1.3c-0.1,0.6,0.4,1.4,1.6,1.6c0.2,0,0.4,0.1,0.6,0.1c0.8,0,1.5-0.3,2-0.7
	c0.4-0.4,0.7-0.9,0.8-1.4c0-0.2,0.1-0.5,0.1-0.8c0-0.9,0.1-2.2,1.3-2.3c0.5,0,0.7-0.3,0.7-0.5C31.7,33.4,31.4,33.2,31.1,33.2z
	 M37.6,36.4c-0.1,0-0.2,0-0.3,0c-0.9,0-1.3,0.5-1.3,0.9c0,0.5,0.4,0.9,1.1,0.9c0.1,0,0.3,0,0.4-0.1c0.3-0.1,0.5-0.3,0.4-0.5
	c-0.1-0.2-0.3-0.3-0.5-0.3c0,0,0,0,0,0c0,0,0.1,0,0.1,0c0.2,0,0.5,0.2,0.6,0.4l0,0l0,0c0.1,0.2,0,0.6-0.5,0.7
	c-0.1,0-0.3,0.1-0.4,0.1c-0.4,0-0.9-0.2-1.1-0.4c-0.5-0.5-0.6-1.2-0.6-1.8c0-0.1,0-0.1,0-0.2l0,0c-0.1-1.1-0.3-2.6-2.6-2.8
	c0,0-0.1,0-0.1,0c-0.3,0-0.6,0.2-0.6,0.4c0,0.2,0.2,0.5,0.7,0.5c1.2,0.1,1.3,1.4,1.3,2.3c0,0.3,0,0.6,0.1,0.8c0.1,0.5,0.4,1,0.8,1.4
	c0.5,0.5,1.2,0.7,2,0.7c0.2,0,0.4,0,0.6-0.1c1.2-0.2,1.7-1,1.6-1.6C39.4,37,38.7,36.5,37.6,36.4z M43.9,48c-0.9,0-3.7,0-4.3,0
	c0,0,0,0,0,0c0,0,0,0,0,0c0,0-0.1,0-0.1,0l0,0c-0.5,0-0.8,0.3-1.1,0.6l0,0c0,0,0,0,0,0.1c0,0,0,0,0,0c-0.5,0.8-4.7,7.8-6.4,7.8
	c-1.6,0-5.9-7-6.4-7.8c0,0,0,0,0,0c0,0,0-0.1,0-0.1l0,0C25.4,48.2,25,48,24.5,48l0,0c0,0,0,0-0.1,0c0,0,0,0,0,0c0,0,0,0,0,0
	c-0.6,0-3.4,0-4.3,0c-4.2,0-9.8,3.7-9.8,8.5s0,7.6,0,7.6H32h0h0h21.7c0,0,0-2.8,0-7.6C53.7,51.7,48.1,48,43.9,48z"/>
</svg>
